<svg width="400" height="400" xmlns="http://www.w3.org/2000/svg">
 <!-- Created with Method Draw - http://github.com/duopixel/Method-Draw/ -->
 <g>
  <title>background</title>
  <rect fill="none" id="canvas_background" height="402" width="402" y="-1" x="-1"/>
  <g display="none" overflow="visible" y="0" x="0" height="100%" width="100%" id="canvasGrid">
   <rect fill="url(#gridpattern)" stroke-width="0" y="0" x="0" height="100%" width="100%"/>
  </g>
 </g>
 <g>
  <title>Layer 1</title>
  <path stroke="#000" id="svg_1" d="m348.789479,348.622597l47.795211,-38.703511l-47.795211,-38.688704l-47.805447,-38.674164l0,43.024442c-12.540271,-0.029003 -33.322223,-0.029003 -39.213489,-0.029003c-17.40693,-0.582183 -28.831734,-8.220687 -40.720946,-21.897936c-17.720816,-20.413809 -32.844812,-57.15296 -51.084524,-92.55319c-9.276727,-17.605416 -19.611944,-35.06572 -33.37668,-49.106349c-13.627174,-14.099228 -31.431074,-23.876913 -51.222015,-23.687723l-85.781704,0l0,68.734743l85.781704,0c11.928024,0.305565 19.477015,5.761688 29.773359,19.29352c15.233003,20.122841 30.084693,58.593162 50.568343,95.041326c20.073658,36.098675 50.962638,72.546801 95.764071,72.896004l39.511882,0l0,43.024309l47.805447,-38.673763zm-202.203186,-260.31612c0.542237,0.538449 1.115631,1.003837 1.644754,1.556998c16.348594,16.67422 28.154609,37.131878 37.498857,54.926635c2.147984,4.161089 4.052146,8.16247 6.091154,12.251128l109.162974,0l0,43.039135l47.805447,-38.674355l47.795211,-38.688494l-47.795211,-38.703263l-47.805447,-38.717917l0,43.010132l-154.397739,0z" stroke-width="1.5" fill="#2893ff"/>
 </g>
</svg>